<?xml version="1.0" encoding="UTF-8" standalone="no"?>
<!-- Created with Inkscape (http://www.inkscape.org/) -->

<svg
   xmlns:dc="http://purl.org/dc/elements/1.1/"
   xmlns:cc="http://creativecommons.org/ns#"
   xmlns:rdf="http://www.w3.org/1999/02/22-rdf-syntax-ns#"
   xmlns:svg="http://www.w3.org/2000/svg"
   xmlns="http://www.w3.org/2000/svg"
   xmlns:sodipodi="http://sodipodi.sourceforge.net/DTD/sodipodi-0.dtd"
   xmlns:inkscape="http://www.inkscape.org/namespaces/inkscape"
   version="1.1"
   id="svg2"
   xml:space="preserve"
   width="720"
   height="720"
   viewBox="0 0 720 720"
   sodipodi:docname="logo.svg"
   inkscape:version="0.92.3 (2405546, 2018-03-11)"><metadata
     id="metadata8"><rdf:RDF><cc:Work
         rdf:about=""><dc:format>image/svg+xml</dc:format><dc:type
           rdf:resource="http://purl.org/dc/dcmitype/StillImage" /><dc:title></dc:title></cc:Work></rdf:RDF></metadata><defs
     id="defs6"><clipPath
       clipPathUnits="userSpaceOnUse"
       id="clipPath20"><path
         d="M 0,1.206994e-5 H 959.76 V 540.00001 H 0 Z"
         id="path18"
         inkscape:connector-curvature="0" /></clipPath></defs><sodipodi:namedview
     pagecolor="#ffffff"
     bordercolor="#666666"
     borderopacity="1"
     objecttolerance="10"
     gridtolerance="10"
     guidetolerance="10"
     inkscape:pageopacity="0"
     inkscape:pageshadow="2"
     inkscape:window-width="1920"
     inkscape:window-height="1052"
     id="namedview4"
     showgrid="false"
     inkscape:zoom="0.57010484"
     inkscape:cx="349.52602"
     inkscape:cy="243.81495"
     inkscape:window-x="1920"
     inkscape:window-y="0"
     inkscape:window-maximized="1"
     inkscape:current-layer="g24" /><g
     id="g10"
     inkscape:groupmode="layer"
     inkscape:label="logo"
     transform="matrix(1.3333333,0,0,-1.3333333,0,720)"><g
       id="g12" /><g
       id="g24"
       transform="translate(-210.00001)"><path
         d="M 210.00001,540 H 750.00002 V 1.40816e-5 H 210.00001 Z"
         style="fill:#000000;fill-opacity:1;fill-rule:nonzero;stroke:none;stroke-width:0.75"
         id="path26"
         inkscape:connector-curvature="0" /><path
         d="m 419.98113,139.47156 h 107.83706 l 6.92541,-6.92556 v -34.626273 0 H 413.05572 v 0 34.626273 z"
         style="fill:#ffffff;fill-opacity:1;fill-rule:nonzero;stroke:none;stroke-width:1.56644523"
         id="path28"
         inkscape:connector-curvature="0" /><g
         id="g30"
         transform="matrix(1.2334214e-4,0,0,-1.2334214e-4,413.05572,139.47156)"><path
           d="M 56148.39,0 H 930440.6 L 986589,56148.41 v 280734.49 0 H 0 v 0 -280734.49 z"
           style="fill:none;stroke:#7f7f7f;stroke-width:19050;stroke-linecap:butt;stroke-linejoin:round;stroke-miterlimit:10;stroke-dasharray:none;stroke-opacity:1"
           id="path32"
           inkscape:connector-curvature="0" /></g><path
         d="m 248.22872,409.21264 c 0,29.79536 24.15395,53.94931 53.94915,53.94931 h 355.64431 c 29.79535,0 53.94915,-24.15395 53.94915,-53.94931 V 193.42103 c 0,-29.79535 -24.1538,-53.94931 -53.94915,-53.94931 H 302.17787 c -29.7952,0 -53.94915,24.15396 -53.94915,53.94931 z"
         style="fill:#ffffff;fill-opacity:1;fill-rule:nonzero;stroke:none;stroke-width:1.56644523"
         id="path34"
         inkscape:connector-curvature="0" /><g
         id="g36"
         transform="matrix(1.2334214e-4,0,0,-1.2334214e-4,248.22872,463.16195)"><path
           d="M 0,437394.7 C 0,195828.3 195828.2,0 437394.5,0 H 3320790 c 241567,0 437395,195828.3 437395,437394.7 V 2186932 c 0,241567 -195828,437395 -437395,437395 H 437394.5 C 195828.2,2624327 0,2428499 0,2186932 Z"
           style="fill:none;stroke:#7f7f7f;stroke-width:76200;stroke-linecap:butt;stroke-linejoin:round;stroke-miterlimit:10;stroke-dasharray:none;stroke-opacity:1"
           id="path38"
           inkscape:connector-curvature="0" /></g><g
         id="g40"
         transform="matrix(0.37594684,0,0,0.37594684,275.30848,-527.55698)"><g
           aria-label="My Reading "
           transform="matrix(1,0,0,-1,0,2250)"
           style="font-variant:normal;font-weight:bold;font-size:183.33329773px;font-family:AvenirNextLTPro;-inkscape-font-specification:AvenirNextLTPro-Bold;writing-mode:lr-tb;fill:#000000;fill-opacity:1;fill-rule:nonzero;stroke:none"
           id="text44"><path
             d="m 16.829424,-133.65069 h 43.863924 l 30.436192,71.525051 30.61523,-71.525051 h 43.7744 V 0 h -32.58463 v -97.753887 l -30.79426,72.06216 H 80.297836 L 49.503571,-97.753887 V 0 H 16.829424 Z"
             style=""
             id="path3780" /><path
             d="m 177.22959,-100.2604 h 32.04752 l 26.94499,68.033844 22.91666,-68.033844 h 32.04752 L 249.0232,9.4889304 Q 242.66741,26.228836 234.16318,32.853184 225.74846,39.56705 211.87314,39.56705 H 193.34287 V 18.53027 h 10.02604 q 8.14616,0 11.81641,-2.596028 3.75976,-2.596028 5.81868,-9.3098943 l 0.89518,-2.7750646 z"
             style=""
             id="path3782" /><path
             d="m 390.79082,-74.389634 q 10.8317,0 15.48665,-4.02832 4.74447,-4.028319 4.74447,-13.248695 0,-9.130861 -4.74447,-13.069661 -4.65495,-3.9388 -15.48665,-3.9388 h -14.50195 v 34.285476 z M 376.28887,-50.57779 V 0 h -34.46451 v -133.65069 h 52.63671 q 26.40787,0 38.67186,8.8623 12.35352,8.86231 12.35352,28.019203 0,13.248695 -6.44531,21.752926 -6.3558,8.50423 -19.24642,12.532549 7.07194,1.611328 12.62207,7.340494 5.63965,5.639647 11.36881,17.187496 L 462.49491,0 h -36.70247 l -16.29231,-33.211257 q -4.92351,-10.026039 -10.02604,-13.696286 -5.01302,-3.670247 -13.42774,-3.670247 z"
             style=""
             id="path3784" /><path
             d="m 559.6034,-50.398753 v 9.130857 h -74.92674 q 1.16374,11.279295 8.14616,16.918942 6.98242,5.639648 19.51497,5.639648 10.11555,0 20.6787,-2.954101 10.65267,-3.043619 21.84245,-9.130858 v 24.7070266 q -11.36882,4.2968742 -22.73763,6.44531125 -11.36881,2.23795525 -22.73763,2.23795525 -27.21353,0 -42.34211,-13.7858041 -15.03906,-13.875323 -15.03906,-38.850904 0,-24.52799 14.77051,-38.58235 14.86002,-14.05436 40.8203,-14.05436 23.63281,0 37.77669,14.233397 14.23339,14.233395 14.23339,38.04524 z M 526.6607,-61.05142 q 0,-9.130858 -5.37109,-14.680987 -5.28158,-5.639648 -13.87533,-5.639648 -9.30989,0 -15.12857,5.281575 -5.81869,5.192056 -7.25098,15.03906 z"
             style=""
             id="path3786" /><path
             d="m 612.7552,-45.117179 q -10.02604,0 -15.12858,3.401692 -5.01302,3.401692 -5.01302,10.02604 0,6.087238 4.02832,9.578449 4.11784,3.401692 11.36881,3.401692 9.04134,0 15.2181,-6.445312 6.17675,-6.534829 6.17675,-16.292314 v -3.670247 z m 48.96646,-12.084958 V 0 h -32.31608 v -14.860023 q -6.44531,9.1308574 -14.50195,13.3382134 -8.05664,4.1178377 -19.60448,4.1178377 -15.57617,0 -25.33366,-9.0413393 -9.66797,-9.1308578 -9.66797,-23.6328078 0,-17.635088 12.08496,-25.870763 12.17448,-8.235676 38.13476,-8.235676 h 18.88834 v -2.50651 q 0,-7.609048 -5.99772,-11.100258 -5.99772,-3.580729 -18.7093,-3.580729 -10.2946,0 -19.1569,2.058919 -8.8623,2.058919 -16.47135,6.176757 v -24.438472 q 10.29459,-2.506509 20.67871,-3.759769 10.38411,-1.34277 20.76822,-1.34277 27.12402,0 39.11946,10.742186 12.08496,10.652668 12.08496,34.733067 z"
             style=""
             id="path3788" /><path
             d="m 739.66824,-85.57941 v -53.71093 h 32.22655 V 0 h -32.22655 v -14.50195 q -6.62435,8.8623027 -14.59147,12.9801404 -7.96712,4.1178377 -18.44075,4.1178377 -18.53027,0 -30.43619,-14.6809871 -11.90593,-14.770505 -11.90593,-37.955721 0,-23.185217 11.90593,-37.866204 11.90592,-14.770506 30.43619,-14.770506 10.38411,0 18.35123,4.207357 8.05664,4.117838 14.68099,12.890623 z m -21.1263,64.900703 q 10.29459,0 15.66569,-7.51953 5.46061,-7.51953 5.46061,-21.842443 0,-14.322914 -5.46061,-21.842444 -5.3711,-7.51953 -15.66569,-7.51953 -10.20508,0 -15.66569,7.51953 -5.37109,7.51953 -5.37109,21.842444 0,14.322913 5.37109,21.842443 5.46061,7.51953 15.66569,7.51953 z"
             style=""
             id="path3790" /><path
             d="m 792.29032,-100.2604 h 32.04752 V 0 h -32.04752 z m 0,-39.02994 h 32.04752 v 26.13932 h -32.04752 z"
             style=""
             id="path3792" /><path
             d="M 947.26282,-61.05142 V 0 H 915.03626 V -9.9365215 -46.728507 q 0,-12.98014 -0.62663,-17.903642 -0.53711,-4.923502 -1.9694,-7.250975 -1.87988,-3.133137 -5.10254,-4.833983 -3.22265,-1.790365 -7.34049,-1.790365 -10.02604,0 -15.75521,7.788085 -5.72916,7.698566 -5.72916,21.394852 V 0 h -32.04752 v -100.2604 h 32.04752 v 14.68099 q 7.25097,-8.772785 15.39713,-12.890623 8.14616,-4.207357 17.99316,-4.207357 17.36653,0 26.31836,10.652668 9.04134,10.652667 9.04134,30.973302 z"
             style=""
             id="path3794" /><path
             d="m 1027.7031,-17.00846 q -6.6243,8.7727845 -14.5914,12.8906223 Q 1005.1446,0 994.67093,0 976.3197,0 964.32426,-14.412432 q -11.99544,-14.50195 -11.99544,-36.881503 0,-22.469072 11.99544,-36.791985 11.99544,-14.41243 30.34667,-14.41243 10.47367,0 18.44077,4.117835 7.9671,4.117838 14.5914,12.980141 V -100.2604 h 32.2266 v 90.144842 q 0,24.169917 -15.3076,36.881503 -15.2181,12.801105 -44.222,12.801105 -9.39942,0 -18.1722,-1.432292 -8.77279,-1.432291 -17.63509,-4.386392 V 8.7727848 q 8.41471,4.8339832 16.47135,7.1614572 8.05664,2.416991 16.2028,2.416991 15.75524,0 23.09574,-6.892902 7.3404,-6.8929022 7.3404,-21.573889 z m -21.1262,-62.394194 q -9.93657,0 -15.4867,7.340494 -5.55013,7.340493 -5.55013,20.768225 0,13.785804 5.37109,20.947261 5.3711,7.071939 15.66574,7.071939 10.026,0 15.5761,-7.340493 5.5501,-7.340494 5.5501,-20.678707 0,-13.427732 -5.5501,-20.768225 -5.5501,-7.340494 -15.5761,-7.340494 z"
             style=""
             id="path3796" /></g></g><g
         id="g46"
         transform="matrix(0.37594684,0,0,0.37594684,275.30848,-610.64123)"><g
           aria-label="Display"
           transform="matrix(1,0,0,-1,0,2250)"
           style="font-variant:normal;font-weight:bold;font-size:183.33329773px;font-family:AvenirNextLTPro;-inkscape-font-specification:AvenirNextLTPro-Bold;writing-mode:lr-tb;fill:#000000;fill-opacity:1;fill-rule:nonzero;stroke:none"
           id="text50"><path
             d="m 51.293935,-107.60089 v 81.55109 h 12.353514 q 21.126298,0 32.226556,-10.47363 11.189775,-10.473631 11.189775,-30.436192 0,-19.873043 -11.100257,-30.257156 -11.100258,-10.384112 -32.316074,-10.384112 z m -34.464511,-26.0498 h 36.344394 q 30.436192,0 45.296215,4.38639 14.949537,4.29688 25.602207,14.68099 9.39941,9.04134 13.96484,20.857742 4.56543,11.816404 4.56543,26.765946 0,15.128577 -4.56543,27.0345 -4.56543,11.816404 -13.96484,20.857743 Q 113.33006,-8.6832665 98.290997,-4.2968742 83.251937,0 53.173818,0 H 16.829424 Z"
             style=""
             id="path3799" /><path
             d="m 157.05877,-100.2604 h 32.04752 V 0 h -32.04752 z m 0,-39.02994 h 32.04752 v 26.13932 h -32.04752 z"
             style=""
             id="path3801" /><path
             d="m 289.59886,-97.12726 v 24.348954 q -10.2946,-4.296874 -19.87304,-6.445311 -9.57845,-2.148438 -18.08268,-2.148438 -9.13086,0 -13.60677,2.327474 -4.38639,2.237955 -4.38639,6.982421 0,3.849283 3.31217,5.908201 3.40169,2.058919 12.08496,3.04362 l 5.63965,0.805664 q 24.6175,3.133137 33.12173,10.294594 8.50423,7.161457 8.50423,22.469071 0,16.02376 -11.8164,24.0803991 -11.8164,8.056639 -35.27017,8.056639 -9.93653,0 -20.58919,-1.61132777 -10.56315,-1.5218096 -21.75293,-4.65494703 V -28.0192 q 9.57845,4.654947 19.60449,6.98242 10.11556,2.327474 20.49967,2.327474 9.39941,0 14.14388,-2.596028 4.74446,-2.596029 4.74446,-7.698567 0,-4.296874 -3.31217,-6.355793 -3.22266,-2.148437 -12.98014,-3.312173 l -5.63965,-0.716146 q -21.39485,-2.685547 -29.9886,-9.936522 -8.59375,-7.250975 -8.59375,-22.02148 0,-15.934241 10.92122,-23.632808 10.92123,-7.698567 33.47981,-7.698567 8.86231,0 18.61979,1.34277 9.75749,1.342777 21.21582,4.20736 z"
             style=""
             id="path3803" /><path
             d="M 329.79628,-14.50195 V 38.134758 H 297.74876 V -100.2604 h 32.04752 v 14.68099 q 6.62434,-8.772785 14.68098,-12.890623 8.05664,-4.207357 18.53027,-4.207357 18.53027,0 30.43619,14.770506 11.90593,14.680987 11.90593,37.866204 0,23.185216 -11.90593,37.955721 -11.90592,14.6809871 -30.43619,14.6809871 -10.47363,0 -18.53027,-4.1178377 -8.05664,-4.207356 -14.68098,-12.9801404 z m 21.30533,-64.900704 q -10.29459,0 -15.84472,7.609048 -5.46061,7.51953 -5.46061,21.752926 0,14.233395 5.46061,21.842443 5.55013,7.51953 15.84472,7.51953 10.29459,0 15.66569,-7.51953 5.46061,-7.51953 5.46061,-21.842443 0,-14.322914 -5.46061,-21.842444 -5.3711,-7.51953 -15.66569,-7.51953 z"
             style=""
             id="path3805" /><path
             d="m 418.14371,-139.29034 h 32.04752 V 0 h -32.04752 z"
             style=""
             id="path3807" /><path
             d="m 517.84351,-45.117179 q -10.02604,0 -15.12857,3.401692 -5.01302,3.401692 -5.01302,10.02604 0,6.087238 4.02832,9.578449 4.11783,3.401692 11.36881,3.401692 9.04134,0 15.2181,-6.445312 6.17675,-6.534829 6.17675,-16.292314 v -3.670247 z m 48.96647,-12.084958 V 0 H 534.4939 v -14.860023 q -6.44531,9.1308574 -14.50195,13.3382134 -8.05664,4.1178377 -19.60449,4.1178377 -15.57617,0 -25.33365,-9.0413393 -9.66797,-9.1308578 -9.66797,-23.6328078 0,-17.635088 12.08496,-25.870763 12.17448,-8.235676 38.13476,-8.235676 h 18.88834 v -2.50651 q 0,-7.609048 -5.99772,-11.100258 -5.99772,-3.580729 -18.7093,-3.580729 -10.2946,0 -19.1569,2.058919 -8.8623,2.058919 -16.47135,6.176757 v -24.438472 q 10.29459,-2.506509 20.6787,-3.759769 10.38412,-1.34277 20.76823,-1.34277 27.12402,0 39.11946,10.742186 12.08496,10.652668 12.08496,34.733067 z"
             style=""
             id="path3809" /><path
             d="m 563.45786,-100.2604 h 32.04752 l 26.94499,68.033844 22.91666,-68.033844 h 32.04752 L 635.25147,9.4889304 Q 628.89568,26.228836 620.39145,32.853184 611.97674,39.56705 598.10141,39.56705 H 579.57114 V 18.53027 h 10.02604 q 8.14616,0 11.81641,-2.596028 3.75976,-2.596028 5.81868,-9.3098943 l 0.89518,-2.7750646 z"
             style=""
             id="path3811" /></g></g><path
         d="m 306.84635,63.787356 72.71611,34.132057 h 191.43605 l 69.95462,-35.351534 z"
         style="fill:#ffffff;fill-opacity:1;fill-rule:evenodd;stroke:none;stroke-width:1.56644523"
         id="path52"
         inkscape:connector-curvature="0" /><g
         id="g54"
         transform="matrix(1.2334214e-4,0,0,-1.2334214e-4,306.84635,97.919413)"><path
           d="M 0,276727 589548.2,0 H 2141622 l 567158,286614 z"
           style="fill:none;stroke:#7f7f7f;stroke-width:28575;stroke-linecap:butt;stroke-linejoin:round;stroke-miterlimit:10;stroke-dasharray:none;stroke-opacity:1"
           id="path56"
           inkscape:connector-curvature="0" /></g></g></g></svg>